<?xml version="1.0" encoding="utf-8"?>
<!-- Generator: Adobe Illustrator 20.0.0, SVG Export Plug-In . SVG Version: 6.00 Build 0)  -->
<svg version="1.1" id="Layer_1" xmlns="http://www.w3.org/2000/svg" xmlns:xlink="http://www.w3.org/1999/xlink" x="0px" y="0px"
	 viewBox="0 0 841.9 595.3" style="enable-background:new 0 0 841.9 595.3;" xml:space="preserve">
<style type="text/css">
	.st0{fill:#696969;stroke:#696969;stroke-miterlimit:10;}
	.st1{fill:#FFFFFF;stroke:#FFFFFF;stroke-miterlimit:10;}
</style>
<polygon class="st0" points="614,326.4 503.1,507.5 290.7,507.7 189.2,326.6 300.1,145.5 512.5,145.3 "/>
<rect x="163.8" y="230.9" transform="matrix(0.8698 -0.4934 0.4934 0.8698 -70.4192 203.5309)" class="st1" width="373.2" height="8.6"/>
<rect x="167.8" y="414.6" transform="matrix(0.867 0.4984 -0.4984 0.867 254.9557 -118.2876)" class="st1" width="362.5" height="7.7"/>
<rect x="290.9" y="324.9" transform="matrix(-7.565603e-03 1 -1 -7.565603e-03 757.6414 -92.9621)" class="st1" width="268.1" height="9.2"/>
<rect x="413.5" y="364.6" transform="matrix(0.9025 0.4307 -0.4307 0.9025 208.4749 -183.1727)" class="st1" width="190.6" height="8.6"/>
<rect x="415.2" y="281.9" transform="matrix(0.9004 -0.4351 0.4351 0.9004 -74.5846 246.6313)" class="st1" width="172.2" height="8.6"/>
</svg>
